<?xml version="1.0" standalone="no"?><!DOCTYPE svg PUBLIC "-//W3C//DTD SVG 1.1//EN" "http://www.w3.org/Graphics/SVG/1.1/DTD/svg11.dtd"><svg t="1712823301109" class="icon" viewBox="0 0 1024 1024" version="1.1" xmlns="http://www.w3.org/2000/svg" p-id="10676" xmlns:xlink="http://www.w3.org/1999/xlink" width="200" height="200"><path d="M512 730.763636c-200.145455 0-358.4-162.909091-358.4-358.4S311.854545 13.963636 512 13.963636c200.145455 0 358.4 162.909091 358.4 358.4s-158.254545 358.4-358.4 358.4z m0-670.254545a311.854545 311.854545 0 1 0 0 623.709091 311.854545 311.854545 0 0 0 0-623.709091z" fill="#515151" p-id="10677"></path><path d="M702.836364 1010.036364s-4.654545 0 0 0H325.818182c-23.272727 0-46.545455 0-65.163637-13.963637-4.654545-4.654545-13.963636-13.963636-13.963636-32.581818v-69.818182c0-83.781818 51.2-167.563636 130.327273-209.454545 9.309091-4.654545 23.272727 0 32.581818 9.309091 4.654545 9.309091 0 23.272727-9.309091 32.581818-65.163636 32.581818-107.054545 102.4-107.054545 167.563636v69.818182h395.636363c13.963636 0 27.927273 0 32.581818-4.654545v-65.163637c0-65.163636-41.890909-134.981818-107.054545-167.563636-9.309091-4.654545-13.963636-18.618182-9.309091-32.581818 4.654545-9.309091 18.618182-13.963636 32.581818-9.309091 79.127273 41.890909 134.981818 125.672727 134.981818 209.454545v69.818182c0 13.963636-4.654545 23.272727-13.963636 32.581818-13.963636 13.963636-37.236364 13.963636-55.854545 13.963637zM512 563.2c-65.163636 0-121.018182-37.236364-148.945455-97.745455-4.654545-13.963636 0-23.272727 13.963637-32.581818 13.963636-4.654545 23.272727 0 32.581818 13.963637 18.618182 41.890909 55.854545 69.818182 102.4 69.818181 46.545455 0 83.781818-27.927273 102.4-69.818181 4.654545-13.963636 18.618182-18.618182 32.581818-13.963637 13.963636 4.654545 18.618182 18.618182 13.963637 32.581818-27.927273 60.509091-83.781818 97.745455-148.945455 97.745455z" fill="#515151" p-id="10678"></path></svg>